<svg width="60" height="40" viewBox="0 0 60 40" fill="none" xmlns="http://www.w3.org/2000/svg">
<path d="M0 10C0 4.47715 4.47715 0 10 0H60V40H0V10Z" fill="#1C62CD"/>
<path d="M44 10L43.0713 12.5H40.66L36.3175 27.5H19.7687L14 13.75H35.015L34.31 16.25H17.76L21.4313 25H34.4662L38.7563 10H44ZM24.625 28.75C23.59 28.75 22.75 29.59 22.75 30.625C22.75 31.6612 23.59 32.5 24.625 32.5C25.66 32.5 26.5 31.6612 26.5 30.625C26.5 29.59 25.66 28.75 24.625 28.75ZM33.25 20L30.875 28.75C29.84 28.75 29 29.5888 29 30.625C29 31.6612 29.84 32.5 30.875 32.5C31.91 32.5 32.75 31.6612 32.75 30.625C32.75 29.59 31.91 28.75 30.875 28.75L33.25 20Z" fill="white"/>
</svg>
